<svg xmlns="http://www.w3.org/2000/svg" id="master-artboard" version="1.1" style="shape-rendering:geometricPrecision; text-rendering:geometricPrecision; image-rendering:optimizeQuality; fill-rule:evenodd; clip-rule:evenodd" viewBox="84.56 317.54 1189.14 336.94"><g transform="matrix(3.3555438279657666, 0, 0, 3.3555438279657666, -0.000005081557901576161, 277.7618528811653)"><g>
	<path class="st0" d="M151.07,42.04c3.67-0.59,8.45-0.92,13.49-0.92c8.38,0,13.82,1.51,18.08,4.72c4.58,3.41,7.47,8.84,7.47,16.63&#10;&#9;&#9;c0,8.45-3.08,14.28-7.33,17.88c-4.65,3.86-11.72,5.7-20.37,5.7c-5.17,0-8.84-0.33-11.33-0.65V42.04z M161.09,78.06&#10;&#9;&#9;c0.85,0.2,2.23,0.2,3.47,0.2c9.04,0.07,14.93-4.91,14.93-15.46c0.07-9.17-5.3-14.01-13.88-14.01c-2.23,0-3.67,0.2-4.52,0.39V78.06z&#10;&#9;&#9;" style="fill: rgb(32, 33, 33);"/>
	<path class="st0" d="M214.53,85.59l-0.59-3.21h-0.2c-2.1,2.55-5.37,3.93-9.17,3.93c-6.48,0-10.35-4.72-10.35-9.82&#10;&#9;&#9;c0-8.32,7.47-12.31,18.8-12.25v-0.46c0-1.7-0.92-4.13-5.83-4.13c-3.27,0-6.75,1.11-8.84,2.42l-1.83-6.42&#10;&#9;&#9;c2.23-1.24,6.61-2.82,12.44-2.82c10.67,0,14.08,6.29,14.08,13.82V77.8c0,3.08,0.13,6.03,0.46,7.79H214.53z M213.36,70.46&#10;&#9;&#9;c-5.24-0.07-9.3,1.18-9.3,5.04c0,2.55,1.7,3.8,3.93,3.8c2.49,0,4.52-1.64,5.17-3.67c0.13-0.52,0.2-1.11,0.2-1.7V70.46z" style="fill: rgb(32, 33, 33);"/>
	<path class="st0" d="M230.91,64.3c0-4.19-0.13-7.79-0.26-10.74h8.64l0.46,4.45h0.13c2.36-3.41,6.03-5.17,10.68-5.17&#10;&#9;&#9;c7.01,0,13.29,6.09,13.29,16.31c0,11.66-7.4,17.16-14.54,17.16c-3.86,0-6.88-1.57-8.32-3.67h-0.13v15.91h-9.95V64.3z M240.86,71.84&#10;&#9;&#9;c0,0.79,0.07,1.51,0.2,2.1c0.65,2.69,2.95,4.72,5.83,4.72c4.32,0,6.88-3.6,6.88-9.04c0-5.11-2.29-8.97-6.75-8.97&#10;&#9;&#9;c-2.82,0-5.3,2.1-5.96,5.04c-0.13,0.52-0.2,1.18-0.2,1.77V71.84z" style="fill: rgb(32, 33, 33);"/>
	<path class="st0" d="M270.07,64.3c0-4.19-0.13-7.79-0.26-10.74h8.64l0.46,4.45h0.13c2.36-3.41,6.03-5.17,10.68-5.17&#10;&#9;&#9;c7.01,0,13.29,6.09,13.29,16.31c0,11.66-7.4,17.16-14.54,17.16c-3.86,0-6.88-1.57-8.32-3.67h-0.13v15.91h-9.95V64.3z M280.03,71.84&#10;&#9;&#9;c0,0.79,0.07,1.51,0.2,2.1c0.65,2.69,2.95,4.72,5.83,4.72c4.32,0,6.88-3.6,6.88-9.04c0-5.11-2.29-8.97-6.75-8.97&#10;&#9;&#9;c-2.82,0-5.3,2.1-5.96,5.04c-0.13,0.52-0.2,1.18-0.2,1.77V71.84z" style="fill: rgb(32, 33, 33);"/>
	<path class="st0" d="M319.52,44.66c0,2.75-2.1,4.98-5.37,4.98c-3.14,0-5.24-2.23-5.17-4.98c-0.07-2.88,2.03-5.04,5.24-5.04&#10;&#9;&#9;S319.45,41.78,319.52,44.66z M309.24,85.59V53.56h9.95v32.02H309.24z" style="fill: rgb(32, 33, 33);"/>
	<path class="st0" d="M328.29,85.59V60.9h-4.19v-7.33h4.19v-1.24c0-3.86,1.18-8.12,4.06-10.74c2.49-2.36,5.96-3.21,8.84-3.21&#10;&#9;&#9;c2.23,0,3.93,0.26,5.3,0.65l-0.39,7.66c-0.85-0.26-1.9-0.46-3.21-0.46c-3.27,0-4.65,2.55-4.65,5.7v1.64h6.42v7.33h-6.35v24.69&#10;&#9;&#9;H328.29z" style="fill: rgb(32, 33, 33);"/>
	<path class="st0" d="M356.98,53.56l4.78,15.72c0.52,1.9,1.18,4.26,1.57,5.96h0.2c0.46-1.7,0.98-4.13,1.44-5.96l3.93-15.72h10.68&#10;&#9;&#9;l-7.47,21.09c-4.58,12.71-7.66,17.81-11.26,21.02c-3.47,3.01-7.14,4.06-9.63,4.39l-2.1-8.45c1.25-0.2,2.82-0.79,4.32-1.7&#10;&#9;&#9;c1.51-0.79,3.14-2.36,4.12-3.99c0.33-0.46,0.52-0.98,0.52-1.44c0-0.33-0.07-0.85-0.46-1.64l-11.72-29.27H356.98z" style="fill: rgb(32, 33, 33);"/>
</g><path class="st1" d="M130.62,86.31" style="fill: rgb(92, 70, 150);"/></g><g transform="matrix(0.34559911489486694, 0, 0, 0.34559911489486694, 17.234360646126675, 317.53730018039477)"><g transform="matrix(10.130879197218228, 0, 0, 10.130879197218228, 192.94492739517074, 2.842170943040401e-14)"><path d="M 0 0 H 0 V 0 H 0 V 0 Z" id="backgroundrect" fill="none" stroke="none" class="" style=""/><g class="currentLayer" style=""><title>Layer 1</title><path class="st1" d="M112.82999908447266,70.10618576169014 " id="svg_9" style="fill: rgb(92, 70, 150);"/><path d="M 44.24381637573242 0 L 99.77381134033203 33.2599983215332 L 99.8838119506836 65.6199951171875 L 15.643813133239746 16.06999969482422 Z" class="st1 selected" id="svg_10" style="fill: rgb(92, 70, 150);"/><path d="M 44.24381637573242 96.23381805419922 L 99.8838119506836 65.41381072998047 L 71.73382568359375 48.903812408447266 L 44.12381362915039 64.97381591796875 Z" class="st2" id="svg_11" fill="#e841e8" fill-opacity="1" style="fill: rgb(126, 95, 204); stroke: rgb(0, 0, 0); stroke-width: 0;"/><path d="M 44 32.71381378173828 L 17.84000015258789 48.123809814453125 L 17.619998931884766 80.16381072998047 L 44.45000076293945 96.23381805419922 Z" class="st1" id="svg_12" style="fill: rgb(93, 70, 150);"/><path d="M 26.920848846435547 32.64921569824219 L 0.18349194526672363 17.129213333129883 L 0.2973974049091339 48.38921356201172 Z" class="st2" id="svg_13" opacity="1" filter="" fill="#e542b7" fill-opacity="1" style="fill: rgb(126, 95, 204);"/></g></g></g></svg>