<svg xmlns="http://www.w3.org/2000/svg" id="master-artboard" version="1.1" x="0px" y="0px" style="enable-background:new 0 0 1400 980;" viewBox="-96.68 0 738.12 699.36"><rect id="ee-background" x="0" y="0" width="627.8770141601562" height="699.3574829101562" style="fill: rgb(77, 36, 110); fill-opacity: 0; pointer-events: none;"/><g transform="matrix(2.541388034820556, 0, 0, 2.541388034820556, -110.42914147383703, -5.034029006958036)"><g id="SvgjsG1033"><svg xmlns="http://www.w3.org/2000/svg" width="288" height="288"><svg xmlns="http://www.w3.org/2000/svg" width="288" height="288" fill-rule="evenodd" clip-rule="evenodd" image-rendering="optimizeQuality" shape-rendering="geometricPrecision" text-rendering="geometricPrecision" viewBox="192.35 0 1015.3 980"><g fill="#fc5185" class="color000 svgShape colorfc5185" transform="translate(190.484) scale(10.18356)"><path fill="none" d="M 0 0 H 0 V 0 H 0 V 0 Z"/><g class="currentLayer color000 svgShape" fill="#000000"><path fill="#364f6b" d="M112.82999908447266,70.10618576169014 " class="st1 color5c4696 svgShape color364f6b"/><path fill="#ffffff" d="M 44.24381637573242 0 L 99.77381134033203 33.2599983215332 L 99.8838119506836 65.6199951171875 L 15.643813133239746 16.06999969482422 Z" class="st1 selected colorf2f2f2 svgShape colore5e5ff" transform="matrix(1, 0, 0, 1, 2.7167300543918174, -0.3881042599678075)"/><path fill="#f5e3ff" d="M 44.24381637573242 96.23381805419922 L 99.8838119506836 65.41381072998047 L 71.73382568359375 48.903812408447266 L 44.12381362915039 64.97381591796875 Z" class="st2 colorfff svgShape colorf6f6ff" style="stroke: rgb(227, 211, 237); paint-order: stroke;" transform="matrix(0.9377393126487732, 0, 0, 0.9377393126487732, 5.479309558868408, 2.3392070642497806)"/><path fill="#ffffff" d="M 44 32.71381378173828 L 17.84000015258789 48.123809814453125 L 17.619998931884766 80.16381072998047 L 44.45000076293945 96.23381805419922 Z" class="st1 colorf2f2f2 svgShape colore5e5ff" transform="matrix(0.9602854251861572, 0, 0, 0.9602854251861572, 3.9504498132679213, 0.911115229129791)"/><path fill="#f5e3ff" d="M 26.920848846435547 32.64921569824219 L 0.18349194526672363 17.129213333129883 L 0.2973974049091339 48.38921356201172 Z" class="st2 colorfff svgShape colorf6f6ff" style="stroke: rgb(227, 211, 237);" transform="matrix(1, 0, 0, 1, 1.9405214031968114, -0.3881042682165514)"/></g></g></svg></svg></g></g></svg>