<svg xmlns="http://www.w3.org/2000/svg" id="master-artboard" version="1.1" x="0px" y="0px" style="enable-background:new 0 0 1400 980;" viewBox="0 -43.16 1537.7 749.64"><defs><linearGradient id="gradient-0" gradientUnits="userSpaceOnUse" x1="708.5474853515625" y1="0" x2="708.5474853515625" y2="706.4804077148438" gradientTransform="matrix(-0.46189890596502337, 0.8869322491563162, -1.0263723381462073, -0.5345170375158069, 1068.590168025286, -229.55085950046686)">
                <stop offset="0" style="stop-color: #59217a"/>
                <stop offset="1" style="stop-color: #1f0b2a"/>
              </linearGradient></defs><rect id="ee-background" x="0" y="0" width="1417.094970703125" height="706.4804077148438" style="fill: rgb(78, 29, 106); fill-opacity: 0; pointer-events: none;"/><g transform="matrix(1.0000000861412361, 0, 0, 1.0000000861412361, 0, 8.903032266971422e-8)"><g transform="matrix(0.9926191568374634, 0, 0, 0.9926191568374634, 131.06146240234375, -43.163150787353516)"><rect id="rect-1" x="0" y="0" width="1417.094970703125" height="706.4804077148438" style="fill: rgb(81, 13, 184); fill-opacity: 0; pointer-events: none;"/><g transform="matrix(1.1666958332061768, 0, 0, 1.1666958332061768, -225.88282280899466, 8.837649881086662)"><g transform="matrix(0.3455990850925446, 0, 0, 0.3455990850925446, 22.586411825340974, 173.0318509659366)"><g transform="matrix(10.130879197218228, 0, 0, 10.130879197218228, 192.94492739517074, 2.842170943040401e-14)"><path d="M 0 0 H 0 V 0 H 0 V 0 Z" id="backgroundrect" fill="none" stroke="none" class="" style=""/><g class="currentLayer" style=""><title>Layer 1</title><path class="st1" d="M112.82999908447266,70.10618576169014 " id="svg_9" style="fill: rgb(92, 70, 150);"/></g></g></g><path d="M 756.9990234375 630.27001953125 C 756.9990234375 633.0900268554688 756.1956787109375 635.25 754.5890502929688 636.75 C 752.9823608398438 638.25 750.6657104492188 639 747.6390380859375 639 L 742.7890014648438 639 L 742.7890014648438 621.8699951171875 L 748.1690063476562 621.8699951171875 C 750.9623413085938 621.8699951171875 753.1323852539062 622.606689453125 754.6790161132812 624.0800170898438 C 756.2257080078125 625.5599975585938 756.9990234375 627.6233520507812 756.9990234375 630.27001953125 M 753.22900390625 630.3599853515625 C 753.22900390625 626.6799926757812 751.6023559570312 624.8400268554688 748.3489990234375 624.8400268554688 L 746.4190063476562 624.8400268554688 L 746.4190063476562 636 L 747.97900390625 636 C 751.47900390625 636 753.22900390625 634.1199951171875 753.22900390625 630.3599853515625 ZM 768.5946655273438 639 L 767.8946533203125 637.219970703125 L 767.8046264648438 637.219970703125 C 767.2046508789062 637.97998046875 766.5846557617188 638.5033569335938 765.9446411132812 638.7899780273438 C 765.3113403320312 639.0833129882812 764.4813232421875 639.22998046875 763.4546508789062 639.22998046875 C 762.2012939453125 639.22998046875 761.2113037109375 638.8733520507812 760.4846801757812 638.1599731445312 C 759.7646484375 637.4400024414062 759.4046630859375 636.4166870117188 759.4046630859375 635.0900268554688 C 759.4046630859375 633.6966552734375 759.8912963867188 632.6699829101562 760.8646240234375 632.010009765625 C 761.8380126953125 631.3499755859375 763.3046264648438 630.9833374023438 765.2646484375 630.9099731445312 L 767.53466796875 630.8400268554688 L 767.53466796875 630.27001953125 C 767.53466796875 628.943359375 766.8546752929688 628.280029296875 765.49462890625 628.280029296875 C 764.447998046875 628.280029296875 763.2179565429688 628.5966796875 761.8046264648438 629.22998046875 L 760.6246337890625 626.8099975585938 C 762.13134765625 626.0233154296875 763.8013305664062 625.6300048828125 765.6346435546875 625.6300048828125 C 767.3946533203125 625.6300048828125 768.74462890625 626.0133056640625 769.6846313476562 626.780029296875 C 770.6179809570312 627.5466918945312 771.0846557617188 628.7100219726562 771.0846557617188 630.27001953125 L 771.0846557617188 639 L 768.5946655273438 639 M 767.53466796875 632.9299926757812 L 766.1546630859375 632.97998046875 C 765.1146240234375 633.0066528320312 764.34130859375 633.193359375 763.8346557617188 633.5399780273438 C 763.3280029296875 633.8800048828125 763.0746459960938 634.4033203125 763.0746459960938 635.1099853515625 C 763.0746459960938 636.1166381835938 763.6513061523438 636.6199951171875 764.8046264648438 636.6199951171875 C 765.63134765625 636.6199951171875 766.294677734375 636.3833618164062 766.794677734375 635.9099731445312 C 767.2879638671875 635.4299926757812 767.53466796875 634.7966918945312 767.53466796875 634.010009765625 L 767.53466796875 632.9299926757812 ZM 781.9490356445312 639.22998046875 C 780.4090576171875 639.22998046875 779.2023315429688 638.67333984375 778.3290405273438 637.5599975585938 L 778.1390380859375 637.5599975585938 C 778.2656860351562 638.6533203125 778.3290405273438 639.2866821289062 778.3290405273438 639.4600219726562 L 778.3290405273438 644.77001953125 L 774.759033203125 644.77001953125 L 774.759033203125 625.9000244140625 L 777.6590576171875 625.9000244140625 L 778.1690063476562 627.5999755859375 L 778.3290405273438 627.5999755859375 C 779.162353515625 626.2999877929688 780.3990478515625 625.6500244140625 782.0390014648438 625.6500244140625 C 783.585693359375 625.6500244140625 784.7990112304688 626.25 785.6790161132812 627.4500122070312 C 786.5523681640625 628.643310546875 786.989013671875 630.3033447265625 786.989013671875 632.4299926757812 C 786.989013671875 633.8233032226562 786.7823486328125 635.0366821289062 786.3690185546875 636.0700073242188 C 785.9623413085938 637.1033325195312 785.3790283203125 637.8900146484375 784.6190185546875 638.4299926757812 C 783.86572265625 638.9633178710938 782.9757080078125 639.22998046875 781.9490356445312 639.22998046875 M 780.8990478515625 628.510009765625 C 780.0123901367188 628.510009765625 779.36572265625 628.7833251953125 778.9590454101562 629.3300170898438 C 778.5523681640625 629.8699951171875 778.3423461914062 630.7666625976562 778.3290405273438 632.02001953125 L 778.3290405273438 632.4000244140625 C 778.3290405273438 633.806640625 778.5390014648438 634.816650390625 778.9590454101562 635.4299926757812 C 779.3723754882812 636.0366821289062 780.0323486328125 636.3400268554688 780.9390258789062 636.3400268554688 C 782.5390014648438 636.3400268554688 783.3390502929688 635.02001953125 783.3390502929688 632.3800048828125 C 783.3390502929688 631.0933227539062 783.142333984375 630.1266479492188 782.7490234375 629.47998046875 C 782.355712890625 628.8333129882812 781.739013671875 628.510009765625 780.8990478515625 628.510009765625 ZM 797.1365356445312 639.22998046875 C 795.5965576171875 639.22998046875 794.3898315429688 638.67333984375 793.5165405273438 637.5599975585938 L 793.3265380859375 637.5599975585938 C 793.4531860351562 638.6533203125 793.5165405273438 639.2866821289062 793.5165405273438 639.4600219726562 L 793.5165405273438 644.77001953125 L 789.946533203125 644.77001953125 L 789.946533203125 625.9000244140625 L 792.8465576171875 625.9000244140625 L 793.3565063476562 627.5999755859375 L 793.5165405273438 627.5999755859375 C 794.349853515625 626.2999877929688 795.5865478515625 625.6500244140625 797.2265014648438 625.6500244140625 C 798.773193359375 625.6500244140625 799.9865112304688 626.25 800.8665161132812 627.4500122070312 C 801.7398681640625 628.643310546875 802.176513671875 630.3033447265625 802.176513671875 632.4299926757812 C 802.176513671875 633.8233032226562 801.9698486328125 635.0366821289062 801.5565185546875 636.0700073242188 C 801.1498413085938 637.1033325195312 800.5665283203125 637.8900146484375 799.8065185546875 638.4299926757812 C 799.05322265625 638.9633178710938 798.1632080078125 639.22998046875 797.1365356445312 639.22998046875 M 796.0865478515625 628.510009765625 C 795.1998901367188 628.510009765625 794.55322265625 628.7833251953125 794.1465454101562 629.3300170898438 C 793.7398681640625 629.8699951171875 793.5298461914062 630.7666625976562 793.5165405273438 632.02001953125 L 793.5165405273438 632.4000244140625 C 793.5165405273438 633.806640625 793.7265014648438 634.816650390625 794.1465454101562 635.4299926757812 C 794.5598754882812 636.0366821289062 795.2198486328125 636.3400268554688 796.1265258789062 636.3400268554688 C 797.7265014648438 636.3400268554688 798.5265502929688 635.02001953125 798.5265502929688 632.3800048828125 C 798.5265502929688 631.0933227539062 798.329833984375 630.1266479492188 797.9365234375 629.47998046875 C 797.543212890625 628.8333129882812 796.926513671875 628.510009765625 796.0865478515625 628.510009765625 ZM 804.9739990234375 622.510009765625 C 804.9739990234375 621.3499755859375 805.6240234375 620.77001953125 806.9240112304688 620.77001953125 C 808.2173461914062 620.77001953125 808.864013671875 621.3499755859375 808.864013671875 622.510009765625 C 808.864013671875 623.0633544921875 808.7040405273438 623.4966430664062 808.384033203125 623.8099975585938 C 808.057373046875 624.1166381835938 807.5706787109375 624.27001953125 806.9240112304688 624.27001953125 C 805.6240234375 624.27001953125 804.9739990234375 623.683349609375 804.9739990234375 622.510009765625 M 808.7040405273438 639 L 805.134033203125 639 L 805.134033203125 625.9000244140625 L 808.7040405273438 625.9000244140625 L 808.7040405273438 639 ZM 819.7021484375 628.5800170898438 L 816.6021728515625 628.5800170898438 L 816.6021728515625 639 L 813.0321655273438 639 L 813.0321655273438 628.5800170898438 L 811.0621337890625 628.5800170898438 L 811.0621337890625 626.8599853515625 L 813.0321655273438 625.9000244140625 L 813.0321655273438 624.9400024414062 C 813.0321655273438 623.4466552734375 813.3988037109375 622.356689453125 814.1321411132812 621.6699829101562 C 814.865478515625 620.9833374023438 816.0421752929688 620.6400146484375 817.6621704101562 620.6400146484375 C 818.8955078125 620.6400146484375 819.9921264648438 620.8233642578125 820.9521484375 621.1900024414062 L 820.0421752929688 623.8099975585938 C 819.3221435546875 623.5833129882812 818.655517578125 623.469970703125 818.0421752929688 623.469970703125 C 817.5354614257812 623.469970703125 817.1688232421875 623.6199951171875 816.942138671875 623.9199829101562 C 816.7155151367188 624.219970703125 816.6021728515625 624.606689453125 816.6021728515625 625.0800170898438 L 816.6021728515625 625.9000244140625 L 819.7021484375 625.9000244140625 L 819.7021484375 628.5800170898438 ZM 819.8790283203125 625.9000244140625 L 823.7890014648438 625.9000244140625 L 826.26904296875 633.27001953125 C 826.4757080078125 633.9099731445312 826.6190185546875 634.6666870117188 826.6990356445312 635.5399780273438 L 826.76904296875 635.5399780273438 C 826.855712890625 634.739990234375 827.0223388671875 633.9833374023438 827.26904296875 633.27001953125 L 829.6990356445312 625.9000244140625 L 833.529052734375 625.9000244140625 L 827.989013671875 640.6799926757812 C 827.4823608398438 642.0466918945312 826.759033203125 643.0700073242188 825.8190307617188 643.75 C 824.8723754882812 644.4299926757812 823.7723388671875 644.77001953125 822.51904296875 644.77001953125 C 821.8990478515625 644.77001953125 821.2923583984375 644.7033081054688 820.6990356445312 644.5700073242188 L 820.6990356445312 641.72998046875 C 821.1256713867188 641.8300170898438 821.595703125 641.8800048828125 822.1090087890625 641.8800048828125 C 822.7423706054688 641.8800048828125 823.2923583984375 641.6866455078125 823.759033203125 641.2999877929688 C 824.2323608398438 640.913330078125 824.6023559570312 640.3300170898438 824.8690185546875 639.5499877929688 L 825.0790405273438 638.9099731445312 L 819.8790283203125 625.9000244140625 Z" transform="matrix(8.45271110534668, 0, 0, 8.45271110534668, -5771.754070584216, -4987.392052072547)" style="fill: rgb(255, 255, 255); white-space: pre; color: rgb(0, 0, 0);"/></g></g></g><g transform="matrix(1.4105499078930845, 0, 0, 1.4105499078930845, 7.212512078311956, 155.3315414047453)"><g id="SvgjsG1033"><svg xmlns="http://www.w3.org/2000/svg" width="288" height="288"><svg xmlns="http://www.w3.org/2000/svg" width="288" height="288" fill-rule="evenodd" clip-rule="evenodd" image-rendering="optimizeQuality" shape-rendering="geometricPrecision" text-rendering="geometricPrecision" viewBox="192.35 0 1015.3 980"><g fill="#fc5185" class="color000 svgShape colorfc5185" transform="translate(190.484) scale(10.18356)"><path fill="none" d="M 0 0 H 0 V 0 H 0 V 0 Z"/><g class="currentLayer color000 svgShape" fill="#000000"><path fill="#364f6b" d="M112.82999908447266,70.10618576169014 " class="st1 color5c4696 svgShape color364f6b"/><path fill="#ffffff" d="M 44.24381637573242 0 L 99.77381134033203 33.2599983215332 L 99.8838119506836 65.6199951171875 L 15.643813133239746 16.06999969482422 Z" class="st1 selected colorf2f2f2 svgShape colore5e5ff"/><path fill="#f5e3ff" d="M 44.24381637573242 96.23381805419922 L 99.8838119506836 65.41381072998047 L 71.73382568359375 48.903812408447266 L 44.12381362915039 64.97381591796875 Z" class="st2 colorfff svgShape colorf6f6ff" style="stroke: rgb(227, 211, 237); stroke-width: 1;" transform="matrix(0.9778391342435572, 0, 0, 0.9778391342435572, 1.5956668291893916, 1.0837508217618628)"/><path fill="#ffffff" d="M 44 32.71381378173828 L 17.84000015258789 48.123809814453125 L 17.619998931884766 80.16381072998047 L 44.45000076293945 96.23381805419922 Z" class="st1 colorf2f2f2 svgShape colore5e5ff" style="stroke: rgb(78, 29, 106); stroke-width: 0;"/><path fill="#f5e3ff" d="M 26.920848846435547 32.64921569824219 L 0.18349194526672363 17.129213333129883 L 0.2973974049091339 48.38921356201172 Z" class="st2 colorfff svgShape colorf6f6ff" style="stroke: rgb(227, 211, 237);"/></g></g></svg></svg></g></g></svg>