<?xml version="1.0" encoding="utf-8"?><svg xmlns="http://www.w3.org/2000/svg" xmlns:xlink="http://www.w3.org/1999/xlink" width="2245" height="1053" preserveAspectRatio="xMidYMid" viewBox="0 0 2245 1053" style="z-index:1;margin-right:-2px;display:block;background-repeat-y:initial;background-repeat-x:initial;background-color:rgb(255, 255, 255);animation-play-state:paused" ><g transform="translate(1122.5,526.5) scale(1,1) translate(-1122.5,-526.5)" style="transform:matrix(1, 0, 0, 1, 0, 0);animation-play-state:paused" ><linearGradient id="lg-0.34524761071176724" x1="0" x2="1" y1="0" y2="0" style="animation-play-state:paused" ><stop stop-color="#ff00ff" offset="0" style="animation-play-state:paused" ></stop>

  
<stop stop-color="#00ffff" offset="1" style="animation-play-state:paused" ></stop></linearGradient>
<path d="M 0 0 L 0 1042.65 Q 224.5 944.562 449 895.474 T 898 676.352 T 1347 727.232 T 1796 606.339 T 2245 399.774 L 2245 0 Z" fill="url(#lg-0.34524761071176724)" opacity="0.4" style="opacity:0.4;animation-play-state:paused" ></path>
<path d="M 0 0 L 0 999.93 Q 224.5 849.784 449 818.289 T 898 768.501 T 1347 692.259 T 1796 646.042 T 2245 458.202 L 2245 0 Z" fill="url(#lg-0.34524761071176724)" opacity="0.4" style="opacity:0.4;animation-play-state:paused" ></path>
<path d="M 0 0 L 0 918.394 Q 224.5 928.698 449 902.044 T 898 748.352 T 1347 613.946 T 1796 466.222 T 2245 448.626 L 2245 0 Z" fill="url(#lg-0.34524761071176724)" opacity="0.4" style="opacity:0.4;animation-play-state:paused" ></path>
<path d="M 0 0 L 0 940.399 Q 224.5 942.311 449 916.369 T 898 686.446 T 1347 608.611 T 1796 527.265 T 2245 393.277 L 2245 0 Z" fill="url(#lg-0.34524761071176724)" opacity="0.4" style="opacity:0.4;animation-play-state:paused" ></path>
<path d="M 0 0 L 0 888.042 Q 224.5 813.406 449 786.932 T 898 726.951 T 1347 620.02 T 1796 500.547 T 2245 433.623 L 2245 0 Z" fill="url(#lg-0.34524761071176724)" opacity="0.4" style="opacity:0.4;animation-play-state:paused" ></path></g></svg>