<?xml version="1.0" encoding="utf-8"?><svg xmlns="http://www.w3.org/2000/svg" xmlns:xlink="http://www.w3.org/1999/xlink" width="1634" height="1008" preserveAspectRatio="xMidYMid" viewBox="0 0 1634 1008" style="z-index:1;margin-right:-2px;display:block;background-repeat-y:initial;background-repeat-x:initial;animation-play-state:paused" ><g transform="translate(817,504) scale(1,1) translate(-817,-504)" style="transform:matrix(1, 0, 0, 1, 0, 0);animation-play-state:paused" ><linearGradient id="lg-0.44663611231460343" x1="0" x2="1" y1="0" y2="0" style="animation-play-state:paused" ><stop stop-color="#cc232a" offset="0" style="animation-play-state:paused" ></stop>

  
<stop stop-color="#fef02d" offset="1" style="animation-play-state:paused" ></stop></linearGradient>
<path d="M 0 0 L 0 892.403 Q 272.333 1009.1 544.667 973.275 T 1089.33 719.213 T 1634 645.669 L 1634 0 Z" fill="url(#lg-0.44663611231460343)" opacity="0.4" style="opacity:0.4;animation-play-state:paused" ></path>
<path d="M 0 0 L 0 779.782 Q 272.333 915.775 544.667 890.606 T 1089.33 808.342 T 1634 904.966 L 1634 0 Z" fill="url(#lg-0.44663611231460343)" opacity="0.4" style="opacity:0.4;animation-play-state:paused" ></path>
<path d="M 0 0 L 0 846.324 Q 272.333 867.243 544.667 850.216 T 1089.33 715.367 T 1634 715.97 L 1634 0 Z" fill="url(#lg-0.44663611231460343)" opacity="0.4" style="opacity:0.4;animation-play-state:paused" ></path>
<path d="M 0 0 L 0 774.705 Q 272.333 907.517 544.667 885.386 T 1089.33 883.305 T 1634 767.349 L 1634 0 Z" fill="url(#lg-0.44663611231460343)" opacity="0.4" style="opacity:0.4;animation-play-state:paused" ></path>
<path d="M 0 0 L 0 819.141 Q 272.333 769.215 544.667 731.381 T 1089.33 730.374 T 1634 724.933 L 1634 0 Z" fill="url(#lg-0.44663611231460343)" opacity="0.4" style="opacity:0.4;animation-play-state:paused" ></path></g></svg>