<?xml version="1.0" encoding="utf-8"?><svg xmlns="http://www.w3.org/2000/svg" xmlns:xlink="http://www.w3.org/1999/xlink" width="1634" height="996" preserveAspectRatio="xMidYMid" viewBox="0 0 1634 996" style="z-index:1;margin-right:-2px;display:block;background-repeat-y:initial;background-repeat-x:initial;animation-play-state:paused" ><g transform="translate(817,498) scale(1,1) translate(-817,-498)" style="transform:matrix(1, 0, 0, 1, 0, 0);animation-play-state:paused" ><linearGradient id="lg-0.7231055933780055" x1="0" x2="1" y1="0" y2="0" style="animation-play-state:paused" ><stop stop-color="#3be8b0" offset="0" style="animation-play-state:paused" ></stop>

  
<stop stop-color="#1aafd0" offset="1" style="animation-play-state:paused" ></stop></linearGradient>
<path d="M 0 0 L 0 875.671 Q 272.333 698.919 544.667 674.735 T 1089.33 892.974 T 1634 984.633 L 1634 0 Z" fill="url(#lg-0.7231055933780055)" opacity="0.4" style="opacity:0.4;animation-play-state:paused" ></path>
<path d="M 0 0 L 0 706.487 Q 272.333 906.256 544.667 868.955 T 1089.33 769.129 T 1634 918.002 L 1634 0 Z" fill="url(#lg-0.7231055933780055)" opacity="0.4" style="opacity:0.4;animation-play-state:paused" ></path>
<path d="M 0 0 L 0 747.433 Q 272.333 775.653 544.667 751.293 T 1089.33 749.803 T 1634 658.566 L 1634 0 Z" fill="url(#lg-0.7231055933780055)" opacity="0.4" style="opacity:0.4;animation-play-state:paused" ></path>
<path d="M 0 0 L 0 895.622 Q 272.333 863.603 544.667 831.667 T 1089.33 841.592 T 1634 848.802 L 1634 0 Z" fill="url(#lg-0.7231055933780055)" opacity="0.4" style="opacity:0.4;animation-play-state:paused" ></path>
<path d="M 0 0 L 0 823.803 Q 272.333 709.509 544.667 681.308 T 1089.33 792.204 T 1634 752.313 L 1634 0 Z" fill="url(#lg-0.7231055933780055)" opacity="0.4" style="opacity:0.4;animation-play-state:paused" ></path></g></svg>