<?xml version="1.0" encoding="utf-8"?><svg xmlns="http://www.w3.org/2000/svg" xmlns:xlink="http://www.w3.org/1999/xlink" width="2414" height="718" preserveAspectRatio="xMidYMid" viewBox="0 0 2414 718" style="z-index:1;margin-right:-2px;display:block;background-repeat-y:initial;background-repeat-x:initial;background-color:rgb(241, 242, 243);animation-play-state:paused" ><g transform="translate(1207,359) scale(1,1) translate(-1207,-359)" style="transform:matrix(1, 0, 0, 1, 0, 0);animation-play-state:paused" ><linearGradient id="lg-0.3172403017907264" x1="0" x2="1" y1="0" y2="0" style="animation-play-state:paused" ><stop stop-color="#e56409" offset="0" style="animation-play-state:paused" ></stop>

  
<stop stop-color="#d000fe" offset="1" style="animation-play-state:paused" ></stop></linearGradient>
<path d="M 0 0 L 0 545.959 Q 241.4 529.185 482.8 491.527 T 965.6 290.996 T 1448.4 204.522 T 1931.2 153.699 T 2414 59.2852 L 2414 0 Z" fill="url(#lg-0.3172403017907264)" opacity="0.4" style="opacity:0.4;animation-play-state:paused" ></path>
<path d="M 0 0 L 0 631.109 Q 241.4 499.388 482.8 480.249 T 965.6 320.64 T 1448.4 312.006 T 1931.2 236.696 T 2414 23.684 L 2414 0 Z" fill="url(#lg-0.3172403017907264)" opacity="0.4" style="opacity:0.4;animation-play-state:paused" ></path>
<path d="M 0 0 L 0 536.242 Q 241.4 500.336 482.8 458.366 T 965.6 428.825 T 1448.4 319.805 T 1931.2 224.677 T 2414 94.3854 L 2414 0 Z" fill="url(#lg-0.3172403017907264)" opacity="0.4" style="opacity:0.4;animation-play-state:paused" ></path>
<path d="M 0 0 L 0 549.954 Q 241.4 609.344 482.8 570.601 T 965.6 445.934 T 1448.4 264.403 T 1931.2 268.772 T 2414 30.796 L 2414 0 Z" fill="url(#lg-0.3172403017907264)" opacity="0.4" style="opacity:0.4;animation-play-state:paused" ></path>
<path d="M 0 0 L 0 554.9 Q 241.4 434.557 482.8 398.049 T 965.6 302.826 T 1448.4 242.622 T 1931.2 177.605 T 2414 155.092 L 2414 0 Z" fill="url(#lg-0.3172403017907264)" opacity="0.4" style="opacity:0.4;animation-play-state:paused" ></path></g></svg>